<?xml version="1.0" ?><svg id="Layer_1" style="enable-background:new 0 0 64 64;" version="1.1" viewBox="0 0 64 64" xml:space="preserve" xmlns="http://www.w3.org/2000/svg" xmlns:xlink="http://www.w3.org/1999/xlink"><style type="text/css">
	.st0{fill:none;stroke:#1A1A1A;stroke-width:2;stroke-linecap:round;stroke-linejoin:round;stroke-miterlimit:10;}
	.st1{fill:#1A1A1A;}
	.st2{fill:none;stroke:#000000;stroke-width:2;stroke-linecap:round;stroke-linejoin:round;stroke-miterlimit:10;}
	.st3{fill:none;stroke:#1A1A1A;stroke-width:2;stroke-linecap:round;stroke-linejoin:round;}
	.st4{fill:none;stroke:#1A1A1A;stroke-width:2;stroke-linecap:round;stroke-linejoin:round;stroke-dasharray:5.8,5.8;}
</style><g><path class="st0" d="M58.3,22.9C51.9,32.2,44.2,39.9,35.1,46L20.7,31.5L43.8,8.4L58.3,22.9z"/><circle class="st0" cx="43.1" cy="16.2" r="2"/><g><path class="st0" d="M34.2,38.4c1.4-1.4,2.3-0.4,3.6-1.8c1.4-1.4,0.4-2.3,1.8-3.6c1.4-1.4,2.3-0.4,3.6-1.8    c1.4-1.4,0.4-2.3,1.8-3.6c1.4-1.4,2.3-0.4,3.6-1.8c1.4-1.4,0.4-2.3,1.8-3.6"/></g><path class="st0" d="M21.7,32.6c-5.7,4.1-11.1,9.7-14,14.7l2.6,4c0.5,0.5,1.2,0.4,1.6-0.2c0.5-0.9,2-3.6,3.5-5s6.4-4.9,10.6-9.2"/></g></svg>