<svg width="64" height="64" xmlns="http://www.w3.org/2000/svg">

 <g>
  <title>background</title>
  <rect fill="#e2eaf0" id="canvas_background" height="66" width="66" y="-1" x="-1"/>
 </g>
 <g>
  <title>Layer 1</title>
  <path stroke-miterlimit="10" stroke-linejoin="round" stroke-linecap="round" stroke-width="2" stroke="#1a1a1a" fill="none" id="svg_2" d="m58.3,22.9c-6.4,9.3 -14.1,17 -23.2,23.1l-14.4,-14.5l23.1,-23.1l14.5,14.5z" class="st0"/>
  <circle stroke-miterlimit="10" stroke-linejoin="round" stroke-linecap="round" stroke-width="2" stroke="#1a1a1a" fill="none" id="svg_3" r="2" cy="16.2" cx="43.1" class="st0"/>
  <path stroke-miterlimit="10" stroke-linejoin="round" stroke-linecap="round" stroke-width="2" stroke="#1a1a1a" fill="none" id="svg_5" d="m34.2,38.4c1.4,-1.4 2.3,-0.4 3.6,-1.8c1.4,-1.4 0.4,-2.3 1.8,-3.6c1.4,-1.4 2.3,-0.4 3.6,-1.8c1.4,-1.4 0.4,-2.3 1.8,-3.6c1.4,-1.4 2.3,-0.4 3.6,-1.8c1.4,-1.4 0.4,-2.3 1.8,-3.6" class="st0"/>
  <path stroke-miterlimit="10" stroke-linejoin="round" stroke-linecap="round" stroke-width="2" stroke="#1a1a1a" fill="none" id="svg_6" d="m21.7,32.6c-5.7,4.1 -11.1,9.7 -14,14.7l2.6,4c0.5,0.5 1.2,0.4 1.6,-0.2c0.5,-0.9 2,-3.6 3.5,-5s6.4,-4.9 10.6,-9.2" class="st0"/>
 </g>
</svg>