<?xml version="1.0" ?><svg height="24" id="svg4647" version="1.1" viewBox="0 0 6.3499999 6.3500002" width="24" xmlns="http://www.w3.org/2000/svg" xmlns:cc="http://creativecommons.org/ns#" xmlns:dc="http://purl.org/dc/elements/1.1/" xmlns:inkscape="http://www.inkscape.org/namespaces/inkscape" xmlns:rdf="http://www.w3.org/1999/02/22-rdf-syntax-ns#" xmlns:sodipodi="http://sodipodi.sourceforge.net/DTD/sodipodi-0.dtd" xmlns:svg="http://www.w3.org/2000/svg"><defs id="defs4641"/><g id="layer1" transform="translate(0,-290.64999)"><path d="M 1.058333,234.10475 C 0.47201702,234.10475 2.4999999e-8,234.57677 2.4999999e-8,235.16308 v 4.23334 c 0,0.58631 0.472016995000001,1.05833 1.058332975000001,1.05833 h 4.233334 c 0.586317,0 1.058333,-0.47202 1.058333,-1.05833 v -4.23334 c 0,-0.58631 -0.472016,-1.05833 -1.058333,-1.05833 z m 0.794267,1.05833 h 2.644283 c 0.435161,0 0.795301,0.35808 0.795301,0.79324 v 2.64635 c 0,0.43516 -0.36014,0.79271 -0.795301,0.79271 H 1.8526 c -0.435161,0 -0.794783,-0.35755 -0.794783,-0.79271 v -2.64635 c 0,-0.43516 0.359622,-0.79324 0.794783,-0.79324 z m 0,0.52969 c -0.151155,0 -0.265617,0.11239 -0.265617,0.26355 v 2.64635 c 0,0.15115 0.114462,0.26355 0.265617,0.26355 h 2.644283 c 0.151156,0 0.266134,-0.1124 0.266134,-0.26355 v -2.64635 c 0,-0.15116 -0.114978,-0.26355 -0.266134,-0.26355 z m 2.380734,0.26406 a 0.26458334,0.26458334 0 0 1 0.264583,0.26459 0.26458334,0.26458334 0 0 1 -0.264583,0.26458 0.26458334,0.26458334 0 0 1 -0.264584,-0.26458 0.26458334,0.26458334 0 0 1 0.264584,-0.26459 z M 3.175,236.22193 c 0.581368,0 1.058334,0.47697 1.058334,1.05834 0,0.58136 -0.476966,1.05885 -1.058334,1.05885 -0.581367,0 -1.05885,-0.47749 -1.05885,-1.05885 0,-0.58137 0.477483,-1.05834 1.05885,-1.05834 z m 0,0.52917 c -0.295384,0 -0.529683,0.23378 -0.529683,0.52917 0,0.29538 0.234299,0.52968 0.529683,0.52968 0.295385,0 0.529167,-0.2343 0.529167,-0.52968 0,-0.29539 -0.233782,-0.52917 -0.529167,-0.52917 z" id="rect4598" style="opacity:1;fill:#333333;fill-opacity:1;stroke:none;stroke-width:0.26458335;stroke-linecap:butt;stroke-linejoin:miter;stroke-miterlimit:4;stroke-dasharray:none;stroke-dashoffset:0;stroke-opacity:1"/><path d="M 1.0583333,290.64999 C 0.47201672,290.64999 4.9999998e-8,291.12201 4.9999998e-8,291.70832 v 4.23334 c 0,0.58631 0.472016670000002,1.05833 1.058333250000002,1.05833 h 4.2333334 c 0.5863167,0 1.0583333,-0.47202 1.0583333,-1.05833 v -4.23334 c 0,-0.58631 -0.4720166,-1.05833 -1.0583333,-1.05833 z m 2.1533565,1.19114 c 0.079724,-0.002 0.1619911,1.4e-4 0.247015,0.007 0.6272795,0.0486 1.1424312,0.51293 1.2340325,1.12189 0.08686,0.5776 -0.1783503,1.4044 -0.7808304,1.64642 -0.7013522,0.28174 -0.9921875,-0.19741 -0.9921875,-0.19741 0,0 -0.091892,0.39374 -0.1658831,0.67025 -0.048252,0.18031 -0.2271607,0.45754 -0.3436488,0.62993 -0.084201,0.12461 -0.1151414,0.12544 -0.1338421,-0.0274 -0.047577,-0.38892 -0.00185,-0.66996 0.025321,-0.78186 0.031155,-0.12852 0.2930049,-1.25057 0.2930049,-1.25057 -0.1982761,-0.36075 -0.00132,-1.01825 0.4185787,-0.93121 0.4516253,0.0936 0.1966199,0.68183 0.1085215,0.94619 -0.088119,0.26437 -0.103124,0.49172 0.1777657,0.61289 0.2808896,0.12116 0.8294449,-0.12042 0.8459443,-1.18339 0.016537,-1.06298 -1.4297237,-1.09122 -1.8593197,-0.44132 -0.4368429,0.64537 -0.063733,1.10056 -0.045474,1.11673 0.040309,0.0357 0.033906,0.0777 0.027906,0.1018 l -0.050125,0.20154 c -0.00328,0.0131 -0.029157,0.10734 -0.1591654,0.0362 -0.099573,-0.0545 -0.2435278,-0.15285 -0.3457152,-0.39636 -0.2889568,-0.8862 0.302223,-1.85074 1.4981,-1.88102 z" id="rect5224" style="opacity:1;fill:#333333;fill-opacity:1;stroke:none;stroke-width:0.26458335;stroke-linecap:butt;stroke-linejoin:miter;stroke-miterlimit:4;stroke-dasharray:none;stroke-dashoffset:0;stroke-opacity:1"/></g></svg>