<?xml version="1.0" ?><svg height="24" id="svg4647" version="1.1" viewBox="0 0 6.3499999 6.3500002" width="24" xmlns="http://www.w3.org/2000/svg" xmlns:cc="http://creativecommons.org/ns#" xmlns:dc="http://purl.org/dc/elements/1.1/" xmlns:inkscape="http://www.inkscape.org/namespaces/inkscape" xmlns:rdf="http://www.w3.org/1999/02/22-rdf-syntax-ns#" xmlns:sodipodi="http://sodipodi.sourceforge.net/DTD/sodipodi-0.dtd" xmlns:svg="http://www.w3.org/2000/svg"><defs id="defs4641"/><g id="layer1" transform="translate(0,-290.64999)"><path d="M 1.058333,234.10475 C 0.47201702,234.10475 2.4999999e-8,234.57677 2.4999999e-8,235.16308 v 4.23334 c 0,0.58631 0.472016995000001,1.05833 1.058332975000001,1.05833 h 4.233334 c 0.586317,0 1.058333,-0.47202 1.058333,-1.05833 v -4.23334 c 0,-0.58631 -0.472016,-1.05833 -1.058333,-1.05833 z m 0.794267,1.05833 h 2.644283 c 0.435161,0 0.795301,0.35808 0.795301,0.79324 v 2.64635 c 0,0.43516 -0.36014,0.79271 -0.795301,0.79271 H 1.8526 c -0.435161,0 -0.794783,-0.35755 -0.794783,-0.79271 v -2.64635 c 0,-0.43516 0.359622,-0.79324 0.794783,-0.79324 z m 0,0.52969 c -0.151155,0 -0.265617,0.11239 -0.265617,0.26355 v 2.64635 c 0,0.15115 0.114462,0.26355 0.265617,0.26355 h 2.644283 c 0.151156,0 0.266134,-0.1124 0.266134,-0.26355 v -2.64635 c 0,-0.15116 -0.114978,-0.26355 -0.266134,-0.26355 z m 2.380734,0.26406 a 0.26458334,0.26458334 0 0 1 0.264583,0.26459 0.26458334,0.26458334 0 0 1 -0.264583,0.26458 0.26458334,0.26458334 0 0 1 -0.264584,-0.26458 0.26458334,0.26458334 0 0 1 0.264584,-0.26459 z M 3.175,236.22193 c 0.581368,0 1.058334,0.47697 1.058334,1.05834 0,0.58136 -0.476966,1.05885 -1.058334,1.05885 -0.581367,0 -1.05885,-0.47749 -1.05885,-1.05885 0,-0.58137 0.477483,-1.05834 1.05885,-1.05834 z m 0,0.52917 c -0.295384,0 -0.529683,0.23378 -0.529683,0.52917 0,0.29538 0.234299,0.52968 0.529683,0.52968 0.295385,0 0.529167,-0.2343 0.529167,-0.52968 0,-0.29539 -0.233782,-0.52917 -0.529167,-0.52917 z" id="rect4598" style="opacity:1;fill:#333333;fill-opacity:1;stroke:none;stroke-width:0.26458335;stroke-linecap:butt;stroke-linejoin:miter;stroke-miterlimit:4;stroke-dasharray:none;stroke-dashoffset:0;stroke-opacity:1"/><path d="M 1.0583333,290.64999 C 0.47201671,290.64999 3.4999998e-8,291.12201 3.4999998e-8,291.70832 v 4.23334 c 0,0.58631 0.472016675000002,1.05833 1.058333265000002,1.05833 h 4.2333334 c 0.5863167,0 1.0583333,-0.47202 1.0583333,-1.05833 v -4.23334 c 0,-0.58631 -0.4720166,-1.05833 -1.0583333,-1.05833 z M 3.175,291.95585 c 0.270682,0 0.479306,0.0383 0.79375,0.30903 0.3843206,0.33093 0.2717007,0.95748 0.2490814,1.23662 0,0 0.1341279,0.079 0.2702666,-5.3e-4 0.1839172,-0.1075 0.3802645,0.10997 0.1705319,0.21394 -0.2097405,0.10397 -0.5504947,0.12917 -0.3426142,0.45113 0.2078778,0.32196 0.3347984,0.50749 0.7022835,0.6258 0.2939653,0.0638 0.060941,0.16365 -0.084233,0.23255 -0.1196631,0.0568 -0.3079645,0.0273 -0.3203946,0.10645 -0.011774,0.0747 -0.011404,0.22934 -0.1343581,0.21032 -0.1229545,-0.019 -0.45135,-0.0898 -0.7059004,0.0966 -0.2528358,0.18517 -0.4014179,0.25538 -0.5984134,0.25631 -0.1969955,-9.5e-4 -0.3450616,-0.0711 -0.5978975,-0.25631 -0.2545503,-0.18643 -0.5834618,-0.11566 -0.7064163,-0.0966 -0.1229386,0.019 -0.1225788,-0.1356 -0.1343581,-0.21032 -0.012435,-0.0792 -0.2002128,-0.0496 -0.3198786,-0.10645 -0.1451689,-0.0689 -0.3781954,-0.16873 -0.08423,-0.23255 0.3674825,-0.11831 0.4943978,-0.30384 0.7022809,-0.6258 0.2078779,-0.32196 -0.1333923,-0.34715 -0.3431302,-0.45113 -0.2097378,-0.10398 -0.013414,-0.32144 0.1705319,-0.21394 0.1361414,0.0796 0.2707852,5.3e-4 0.2707852,5.3e-4 -0.022595,-0.27914 -0.1352391,-0.90569 0.2490788,-1.23662 0.314444,-0.27077 0.522552,-0.30903 0.7932342,-0.30903 z" id="rect5226" style="opacity:1;fill:#333333;fill-opacity:1;stroke:none;stroke-width:0.26458335;stroke-linecap:butt;stroke-linejoin:miter;stroke-miterlimit:4;stroke-dasharray:none;stroke-dashoffset:0;stroke-opacity:1"/></g></svg>